[h264 @ 0x56269554db40] Reinit context to 1920x1088, pix_fmt: yuv420p
Input #0, mov,mp4,m4a,3gp,3g2,mj2, from '/var/www/html/project/media/video/original/0221-copia1.mp4':
  Metadata:
    major_brand     : isom
    minor_version   : 512
    compatible_brands: isomiso2avc1mp41
    creation_time   : 2025-02-22T07:48:34.000000Z
    Hw              : 1
    bitrate         : 12000000
    com.apple.quicktime.artwork: {"data":{"editType":"default","infoStickerId":"","is_ai_lyric":0,"is_aimusic_mv":0,"is_use_ai_image_generation":0,"is_use_ai_sound":0,"is_use_ai_video_generation":0,"is_use_aimusic_bgm":0,"is_use_aimusic_vocal":0,"is_use_graph_chart":0,"is_use_jichuang_mo
    maxrate         : 0
    te_is_reencode  : 1
    encoder         : Lavf61.1.100
  Duration: 00:01:12.54, start: 0.000000, bitrate: 10179 kb/s
    Stream #0:0(und): Video: h264 (High), 1 reference frame (avc1 / 0x31637661), yuv420p(tv, bt709, left), 1920x1080 (1920x1088) [SAR 1:1 DAR 16:9], 9982 kb/s, 30 fps, 30 tbr, 30 tbn, 60 tbc (default)
    Metadata:
      creation_time   : 2025-02-22T07:48:34.000000Z
      handler_name    : VideoHandler
    Stream #0:1(und): Audio: aac (LC) (mp4a / 0x6134706D), 44100 Hz, stereo, fltp, 194 kb/s (default)
    Metadata:
      creation_time   : 2025-02-22T07:48:34.000000Z
      handler_name    : SoundHandler
Input #1, png_pipe, from '/var/www/html/project/static/images/templates/logo.png':
  Duration: N/A, bitrate: N/A
    Stream #1:0: Video: png, 1 reference frame, rgba(pc), 1920x1080 [SAR 2835:2835 DAR 16:9], 25 tbr, 25 tbn, 25 tbc
[h264 @ 0x5626955aa240] Reinit context to 1280x720, pix_fmt: yuv420p
Input #2, mov,mp4,m4a,3gp,3g2,mj2, from '/var/www/html/project/static/images/templates/Codino.mp4':
  Metadata:
    major_brand     : mp42
    minor_version   : 1
    compatible_brands: isommp41mp42
    creation_time   : 2021-07-11T07:02:58.000000Z
  Duration: 00:00:02.00, start: 0.000000, bitrate: 1007 kb/s
    Stream #2:0(ita): Audio: aac (LC) (mp4a / 0x6134706D), 44100 Hz, stereo, fltp, 102 kb/s (default)
    Metadata:
      creation_time   : 2021-07-11T07:02:58.000000Z
      handler_name    : Core Media Audio
    Stream #2:1(und): Video: h264 (High), 1 reference frame (avc1 / 0x31637661), yuv420p(tv, bt709, progressive, left), 1280x720 [SAR 1:1 DAR 16:9], 813 kb/s, 25 fps, 25 tbr, 25k tbn, 50k tbc (default)
    Metadata:
      creation_time   : 2021-07-11T07:02:58.000000Z
      handler_name    : Core Media Video
[Parsed_scale_0 @ 0x5626955bde40] w:1920 h:1080 flags:'bilinear' interl:0
[Parsed_scale_2 @ 0x5626955cc640] w:1920 h:1080 flags:'bilinear' interl:0
[Parsed_scale_4 @ 0x5626955caa00] w:1920 h:1080 flags:'bilinear' interl:0
Stream mapping:
  Stream #0:0 (h264) -> scale
  Stream #0:1 (aac) -> concat:in0:a0
  Stream #1:0 (png) -> scale
  Stream #2:0 (aac) -> concat:in1:a0
  Stream #2:1 (h264) -> scale
  concat:out:v0 -> Stream #0:0 (libx264)
  concat:out:a0 -> Stream #0:1 (aac)
Press [q] to stop, [?] for help
[h264 @ 0x5626955a8fc0] Reinit context to 1920x1088, pix_fmt: yuv420p
[h264 @ 0x5626959fe1c0] Reinit context to 1280x720, pix_fmt: yuv420p
[Parsed_scale_0 @ 0x562696eba540] w:1920 h:1080 flags:'bilinear' interl:0
[Parsed_scale_2 @ 0x562696ec2b80] w:1920 h:1080 flags:'bilinear' interl:0
[Parsed_scale_4 @ 0x562696ec3b80] w:1920 h:1080 flags:'bilinear' interl:0
[graph 0 input from stream 0:0 @ 0x562696ec82c0] w:1920 h:1080 pixfmt:yuv420p tb:1/30 fr:30/1 sar:1/1 sws_param:flags=2
[graph 0 input from stream 1:0 @ 0x562696ec9300] w:1920 h:1080 pixfmt:rgba tb:1/25 fr:25/1 sar:2835/2835 sws_param:flags=2
[graph 0 input from stream 2:1 @ 0x562696eca380] w:1280 h:720 pixfmt:yuv420p tb:1/25000 fr:25/1 sar:1/1 sws_param:flags=2
[graph_0_in_0_1 @ 0x562696ecb340] tb:1/44100 samplefmt:fltp samplerate:44100 chlayout:0x3
[graph_0_in_2_0 @ 0x562696ecc480] tb:1/44100 samplefmt:fltp samplerate:44100 chlayout:0x3
[Parsed_scale_0 @ 0x562696eba540] w:1920 h:1080 fmt:yuv420p sar:1/1 -> w:1920 h:1080 fmt:yuv420p sar:1/1 flags:0x2
[Parsed_setsar_1 @ 0x562696ec2200] w:1920 h:1080 sar:1/1 dar:16/9 -> sar:1/1 dar:16/9
[Parsed_scale_2 @ 0x562696ec2b80] w:1920 h:1080 fmt:rgba sar:2835/2835 -> w:1920 h:1080 fmt:yuva420p sar:1/1 flags:0x2
[Parsed_setsar_3 @ 0x562696ec3000] w:1920 h:1080 sar:1/1 dar:16/9 -> sar:1/1 dar:16/9
[Parsed_overlay_6 @ 0x562696ec5200] main w:1920 h:1080 fmt:yuv420p overlay w:1920 h:1080 fmt:yuva420p
[Parsed_overlay_6 @ 0x562696ec5200] [framesync @ 0x562696ec5328] Selected 1/150 time base
[Parsed_overlay_6 @ 0x562696ec5200] [framesync @ 0x562696ec5328] Sync level 2
[Parsed_scale_4 @ 0x562696ec3b80] w:1280 h:720 fmt:yuv420p sar:1/1 -> w:1920 h:1080 fmt:yuv420p sar:1/1 flags:0x2
[Parsed_setsar_5 @ 0x562696ec4640] w:1920 h:1080 sar:1/1 dar:16/9 -> sar:1/1 dar:16/9
[libx264 @ 0x5626955cbe80] using SAR=1/1
[libx264 @ 0x5626955cbe80] using cpu capabilities: MMX2 SSE2Fast SSSE3 SSE4.2 AVX FMA3 BMI2 AVX2
[libx264 @ 0x5626955cbe80] profile High, level 4.0
[libx264 @ 0x5626955cbe80] 264 - core 155 r2917 0a84d98 - H.264/MPEG-4 AVC codec - Copyleft 2003-2018 - http://www.videolan.org/x264.html - options: cabac=1 ref=1 deblock=1:0:0 analyse=0x3:0x113 me=hex subme=2 psy=1 psy_rd=1.00:0.00 mixed_ref=0 me_range=16 chroma_me=1 trellis=0 8x8dct=1 cqm=0 deadzone=21,11 fast_pskip=1 chroma_qp_offset=0 threads=24 lookahead_threads=8 sliced_threads=0 nr=0 decimate=1 interlaced=0 bluray_compat=0 constrained_intra=0 bframes=3 b_pyramid=2 b_adapt=1 b_bias=0 direct=1 weightb=1 open_gop=0 weightp=1 keyint=250 keyint_min=25 scenecut=40 intra_refresh=0 rc_lookahead=10 rc=crf mbtree=1 crf=18.0 qcomp=0.60 qpmin=0 qpmax=69 qpstep=4 ip_ratio=1.40 aq=1:1.00
Output #0, mp4, to '/var/www/html/project/media/video/watermarks/0221-copia1.mp4':
  Metadata:
    major_brand     : isom
    minor_version   : 512
    compatible_brands: isomiso2avc1mp41
    te_is_reencode  : 1
    Hw              : 1
    bitrate         : 12000000
    com.apple.quicktime.artwork: {"data":{"editType":"default","infoStickerId":"","is_ai_lyric":0,"is_aimusic_mv":0,"is_use_ai_image_generation":0,"is_use_ai_sound":0,"is_use_ai_video_generation":0,"is_use_aimusic_bgm":0,"is_use_aimusic_vocal":0,"is_use_graph_chart":0,"is_use_jichuang_mo
    maxrate         : 0
    encoder         : Lavf58.29.100
    Stream #0:0: Video: h264 (libx264), 1 reference frame (avc1 / 0x31637661), yuv420p(progressive), 1920x1080 [SAR 1:1 DAR 16:9], q=-1--1, 30 fps, 15360 tbn, 30 tbc (default)
    Metadata:
      encoder         : Lavc58.54.100 libx264
    Side data:
      cpb: bitrate max/min/avg: 0/0/0 buffer size: 0 vbv_delay: -1
    Stream #0:1: Audio: aac (LC) (mp4a / 0x6134706D), 44100 Hz, stereo, fltp, delay 1024, 128 kb/s (default)
    Metadata:
      encoder         : Lavc58.54.100 aac
[Parsed_overlay_6 @ 0x562696ec5200] [framesync @ 0x562696ec5328] Sync level 0
[Parsed_concat_7 @ 0x562696ec6340] EOF on in0:v0, 1 streams left in segment.
[Parsed_concat_7 @ 0x562696ec6340] EOF on in0:a0, 0 streams left in segment.
[Parsed_concat_7 @ 0x562696ec6340] Segment finished at pts=72539274
[Parsed_concat_7 @ 0x562696ec6340] EOF on in1:a0, 1 streams left in segment.
[Parsed_concat_7 @ 0x562696ec6340] EOF on in1:v0, 0 streams left in segment.
[Parsed_concat_7 @ 0x562696ec6340] Segment finished at pts=74557959
No more output streams to write to, finishing.
frame= 2226 fps= 36 q=-1.0 Lsize=  127320kB time=00:01:14.55 bitrate=13988.9kbits/s speed= 1.2x    
[AVIOContext @ 0x56269554bec0] Statistics: 0 seeks, 118 writeouts
video:126063kB audio:1179kB subtitle:0kB other streams:0kB global headers:0kB muxing overhead: 0.061167%
Input file #0 (/var/www/html/project/media/video/original/0221-copia1.mp4):
  Input stream #0:0 (video): 2176 packets read (90506788 bytes); 2176 frames decoded; 
  Input stream #0:1 (audio): 3125 packets read (1762389 bytes); 3124 frames decoded (3198976 samples); 
  Total: 5301 packets (92269177 bytes) demuxed
Input file #1 (/var/www/html/project/static/images/templates/logo.png):
  Input stream #1:0 (video): 1 packets read (111578 bytes); 1 frames decoded; 
  Total: 1 packets (111578 bytes) demuxed
Input file #2 (/var/www/html/project/static/images/templates/Codino.mp4):
  Input stream #2:0 (audio): 89 packets read (26579 bytes); 87 frames decoded (89024 samples); 
  Input stream #2:1 (video): 50 packets read (203365 bytes); 50 frames decoded; 
  Total: 139 packets (229944 bytes) demuxed
Output file #0 (/var/www/html/project/media/video/watermarks/0221-copia1.mp4):
  Output stream #0:0 (video): 2226 frames encoded; 2226 packets muxed (129088393 bytes); 
  Output stream #0:1 (audio): 3211 frames encoded (3288000 samples); 3212 packets muxed (1207656 bytes); 
  Total: 5438 packets (130296049 bytes) muxed
[AVIOContext @ 0x562695648300] Statistics: 2 seeks, 501 writeouts
[libx264 @ 0x5626955cbe80] frame I:15    Avg QP:14.16  size:322580
[libx264 @ 0x5626955cbe80] frame P:980   Avg QP:19.05  size: 99740
[libx264 @ 0x5626955cbe80] frame B:1231  Avg QP:21.86  size: 21530
[libx264 @ 0x5626955cbe80] consecutive B-frames: 18.6% 18.5% 13.9% 49.1%
[libx264 @ 0x5626955cbe80] mb I  I16..4: 23.1% 15.2% 61.7%
[libx264 @ 0x5626955cbe80] mb P  I16..4:  3.9%  3.5%  2.8%  P16..4: 37.2% 13.6% 13.8%  0.0%  0.0%    skip:25.2%
[libx264 @ 0x5626955cbe80] mb B  I16..4:  0.4%  0.3%  0.1%  B16..8: 18.8%  7.7%  2.6%  direct: 9.4%  skip:60.7%  L0:39.3% L1:33.0% BI:27.7%
[libx264 @ 0x5626955cbe80] 8x8 transform intra:32.5% inter:55.2%
[libx264 @ 0x5626955cbe80] coded y,uvDC,uvAC intra: 56.9% 62.2% 28.9% inter: 24.6% 12.9% 1.6%
[libx264 @ 0x5626955cbe80] i16 v,h,dc,p: 51% 25% 20%  4%
[libx264 @ 0x5626955cbe80] i8 v,h,dc,ddl,ddr,vr,hd,vl,hu: 25% 21% 28%  4%  4%  5%  4%  4%  5%
[libx264 @ 0x5626955cbe80] i4 v,h,dc,ddl,ddr,vr,hd,vl,hu: 25% 20% 14%  6%  7%  7%  8%  6%  7%
[libx264 @ 0x5626955cbe80] i8c dc,h,v,p: 47% 25% 22%  6%
[libx264 @ 0x5626955cbe80] Weighted P-Frames: Y:3.7% UV:0.1%
[libx264 @ 0x5626955cbe80] kb/s:13855.57
[aac @ 0x56269560d180] Qavg: 879.509
[AVIOContext @ 0x562695554e40] Statistics: 165598171 bytes read, 3665 seeks
[AVIOContext @ 0x562695554b80] Statistics: 111578 bytes read, 0 seeks
[AVIOContext @ 0x56269558a140] Statistics: 1530915 bytes read, 42 seeks
